<svg width="500" height="86.209" version="1.1" viewBox="0 0 500 86.209" xmlns="http://www.w3.org/2000/svg">
	<path d="m456.89 0.0013152c-14.107 0-26.621 6.7732-34.482 17.233-7.8534-10.46-20.38-17.233-34.477-17.233-14.099 0-26.636 6.7732-34.487 17.238-7.9619-10.498-20.387-17.128-34.474-17.238-14.088-0.11068-26.611 6.7732-34.497 17.233-7.8458-10.46-20.375-17.233-34.472-17.233-14.099 0-26.613 6.7732-34.485 17.233-7.8636-10.46-20.378-17.233-34.487-17.233-14.094 0-26.613 6.7732-34.459 17.233-7.8839-10.46-20.411-17.233-34.487-17.233-14.119 0-26.624 6.7732-34.485 17.233-7.8737-10.46-20.375-17.233-34.497-17.233-23.786 0-43.101 19.3-43.101 43.109 0 23.789 19.313 43.099 43.101 43.099 14.122 0 26.624-6.7782 34.497-17.241 7.8636 10.463 20.365 17.241 34.485 17.241 14.076 0 26.598-6.7782 34.487-17.241 7.8458 10.463 20.368 17.241 34.459 17.241 14.107 0 26.624-6.7782 34.487-17.241 7.8712 10.463 20.385 17.241 34.485 17.241 14.097 0 26.624-6.7782 34.472-17.241 7.8864 10.463 20.388 17.241 34.497 17.241 14.097 0 26.611-6.7782 34.477-17.241 7.8484 10.463 20.388 17.241 34.487 17.241 14.097 0 26.616-6.7782 34.477-17.241 7.856 10.463 20.37 17.241 34.482 17.241 23.811 0 43.104-19.303 43.104-43.099-3e-3 -23.809-19.295-43.109-43.106-43.109" fill="#ed1c24"/>
	<g fill="#fff">
		<path d="m43.134 65.786c-12.504 0-22.691-10.169-22.691-22.675 0-12.514 10.189-22.691 22.691-22.691 12.491 0 22.683 10.176 22.683 22.691-0.0025 12.502-10.191 22.675-22.683 22.675m0-35.448c-7.0369 0-12.775 5.7335-12.775 12.773 0 7.0268 5.7386 12.758 12.775 12.758 7.0344 0 12.76-5.7259 12.76-12.758 0-7.0369-5.7259-12.773-12.76-12.773"/>
		<path d="m112.1 65.786c-12.517 0-22.69-10.169-22.69-22.675 0-12.514 10.176-22.691 22.69-22.691 12.491 0 22.658 10.176 22.658 22.691 0 12.502-10.166 22.675-22.658 22.675m0-35.448c-7.0369 0-12.765 5.7335-12.765 12.773 0 7.0268 5.7234 12.758 12.765 12.758 7.0268 0 12.74-5.7259 12.74-12.758 0-7.0369-5.7132-12.773-12.74-12.773"/>
		<path d="m159.71 64.647 0.0203-21.534 0.033-1.2426c0.66693-12.025 10.62-21.435 22.65-21.435 8.6268 0 16.386 4.7978 20.264 12.529l-8.7536 4.6634c-2.0996-4.4174-6.621-7.2753-11.51-7.2753-7.0268 0-12.742 5.7284-12.742 12.763l-0.0101 21.521h-9.948v0.01014z"/>
		<path d="m250.78 65.806c-0.72523 0-1.4099-0.03043-2.0642-0.07607l-0.53253-0.04564-0.72524-0.05579c-11.49-1.2755-20.137-10.95-20.137-22.521 0-12.519 10.164-22.698 22.691-22.698 12.494 0 22.68 10.181 22.68 22.698 0 1.519-0.12173 2.7945-0.42856 4.2881l-34.241-0.02536 0.69227 1.6584c1.8283 3.4538 5.0564 5.8603 8.8399 6.583 1.1158 0.2054 2.2594 0.31951 3.4082 0.31951l0.5528-0.01521c3.3092-0.0989 6.4384-1.2349 8.5736-3.1444l0.28908-0.25358 9.2202 4.9398-0.42856 0.48434c-4.1461 5.0057-10.065 7.6353-17.606 7.8306-0.2764 0.01775-0.51223 0.03297-0.78357 0.03297m-0.76834-35.461c-5.2416 0-9.8821 3.1216-11.825 7.9625l-0.0558 0.13694 23.705 0.02789-0.0482-0.1344c-1.9272-4.8637-6.5526-7.9929-11.776-7.9929"/>
		<path d="m330.78 23.777c-3.5527-2.1935-7.643-3.3473-11.819-3.3473-12.517 0-22.693 10.174-22.693 22.675 0 12.512 10.179 22.68 22.693 22.68 12.494 0 22.658-10.169 22.658-22.68l0.071-36.627c-3.114-1.9196-6.441-3.4639-9.9658-4.5543l-0.0304 22.419zm-11.819 32.098c-7.0394 0-12.75-5.7335-12.75-12.77 0-7.0318 5.7107-12.758 12.75-12.758 7.0369 0 12.763 5.7259 12.763 12.758 0 7.0293-5.7259 12.77-12.763 12.77"/>
		<path d="m387.92 65.786c-12.504 0-22.693-10.169-22.693-22.675 0-12.514 10.191-22.691 22.693-22.691 12.502 0 22.678 10.176 22.678 22.691 0 12.502-10.174 22.675-22.678 22.675m0-35.448c-7.0369 0-12.763 5.7335-12.763 12.773 0 7.0268 5.7259 12.758 12.763 12.758 7.0445 0 12.75-5.7259 12.75-12.758 0-7.0369-5.7056-12.773-12.75-12.773"/>
		<path d="m456.89 65.786c-12.522 0-22.696-10.169-22.696-22.675 0-12.514 10.174-22.691 22.696-22.691 12.504 0 22.665 10.176 22.665 22.691 0 12.502-10.161 22.675-22.665 22.675m0-35.448c-7.0394 0-12.765 5.7335-12.765 12.773 0 7.0268 5.7259 12.758 12.765 12.758 7.0242 0 12.748-5.7259 12.748-12.758 3e-3 -7.0369-5.7234-12.773-12.748-12.773"/>
	</g>
</svg>
